/* XPM */
static char * bottom_left_active_xpm[] = {
"11 11 5 1",
" 	c #F4F4F4",
".	c #FFFFFF",
"+	c #000000",
"@	c #CCCCCC",
"#	c #666666",
"     ..+.+.",
" @@@#.+.+.+",
" @@@#..+.+.",
" @@@#.+.+.+",
" @@@#..+.+.",
" @@@#.+.+.+",
" @@@#      ",
" @@@@@@@@@#",
" @@@@@@@@@#",
" @@@@@@@@@#",
" ##########"};
