/* XPM */
static char * bottom_right_active_xpm[] = {
"11 11 4 1",
" 	c #FFFFFF",
".	c #F4F4F4",
"+	c #CCCCCC",
"@	c #666666",
"      .....",
"      .+++@",
"      .+++@",
"      .+++@",
"      .+++@",
"      .+++@",
".......+++@",
".+++++++++@",
".+++++++++@",
".+++++++++@",
".@@@@@@@@@@"};
