/* XPM */
static char * bottom_active_xpm[] = {
"4 5 2 1",
" 	c #CCCCCC",
".	c #000000",
"    ",
"    ",
"    ",
"....",
"...."};
