/* XPM */
static char * menu_active_xpm[] = {
"16 25 5 1",
" 	c #000000",
".	c #CCCCCC",
"+	c #F4F4F4",
"@	c #666666",
"#	c #B7B7B7",
"                ",
"                ",
"................",
"................",
"................",
".++++++++++++++.",
"+..............@",
"+..............@",
"+..............@",
"+...@@@@@@@....@",
"+...@#####+....@",
"+....@###+.....@",
"+....@###+.....@",
"+.....@#+......@",
"+.....@#+......@",
"+......+.......@",
"+..............@",
"+..............@",
"+..............@",
".@@@@@@@@@@@@@@.",
"................",
"................",
"................",
"................",
"................"};
