/* XPM */
static char * title_1_active_xpm[] = {
"2 25 5 1",
" 	c #000000",
".	c #CCCCCC",
"+	c #666666",
"@	c #B7B7B7",
"#	c #F4F4F4",
"  ",
"  ",
"..",
"..",
"..",
"++",
"@@",
"@@",
"@@",
"@@",
"@@",
"@@",
"@@",
"@@",
"@@",
"@@",
"@@",
"@@",
"@@",
"##",
"..",
"..",
"..",
"..",
".."};
