/* XPM */
static char * top_right_inactive_xpm[] = {
"11 25 4 1",
" 	c #F4F4F4",
".	c #CCCCCC",
"+	c #666666",
"@	c #000000",
"           ",
" .........+",
" .........+",
" .........+",
" ++++++...+",
"...... ...+",
"...... ...+",
"...... ...+",
"...... ...+",
"...... ...+",
"...... ++++",
".........@@",
".........@@",
".........@@",
".........@@",
".........@@",
".........@@",
".........@@",
".........@@",
".........@@",
".........@@",
".........@@",
".........@@",
".........@@",
".........@@"};
