/* XPM */
static char * top_right_active_xpm[] = {
"11 25 5 1",
" 	c #F4F4F4",
".	c #CCCCCC",
"+	c #666666",
"@	c #B7B7B7",
"#	c #000000",
"           ",
" .........+",
" .........+",
" .........+",
" ++++++...+",
"+++++  ...+",
"@@@@@  ...+",
"@@@@@  ...+",
"@@@@@  ...+",
"@@@@@  ...+",
"@@@@@  ++++",
"@@@@@ ...##",
"@@@@@ ...##",
"@@@@@ ...##",
"@@@@@ ...##",
"@@@@@ ...##",
"@@@@@ ...##",
"@@@@@ ...##",
"@@@@@ ...##",
"      ...##",
".........##",
".........##",
".........##",
".........##",
".........##"};
